<svg xmlns="http://www.w3.org/2000/svg" xml:space="preserve" style="fill-rule:evenodd;clip-rule:evenodd;stroke-linejoin:round;stroke-miterlimit:2" viewBox="0 0 1600 1600"><path d="M180.115 670.035a1578 1578 0 0 1-52.25-43.178c-26.547-22.899-29.509-63.043-6.61-89.59s63.043-29.509 89.59-6.61C407.25 700.072 602.832 782.014 799.236 779.655c197.364-2.37 393.927-89.39 591.291-250.15 27.182-22.141 67.227-18.048 89.368 9.135 22.141 27.182 18.048 67.227-9.135 89.368a1736 1736 0 0 1-51.917 40.698l64.8 82.667c17.112 21.831 12.888 53.756-9.427 71.248-22.316 17.493-54.326 13.97-71.439-7.861l-68.081-86.852c-32.707 21.383-65.424 40.873-98.121 58.443l60.962 116.502c13.756 26.287 3.582 58.797-22.706 72.552-26.287 13.755-58.796 3.581-72.552-22.706l-61.419-117.375a54 54 0 0 1-1.216-2.474q-43.4 18.314-86.809 32.118a53.6 53.6 0 0 1 6.372 18.043l21.243 130.759c4.757 29.285-15.156 56.923-44.441 61.68-29.284 4.757-56.922-15.156-61.68-44.44l-21.242-130.759a54 54 0 0 1-.697-9.424 855 855 0 0 1-66.951 10.457v143.09c0 35.059-28.464 63.522-63.522 63.522s-63.522-28.463-63.522-63.522V906.1c-36.937-1.474-73.893-5.468-110.837-12.031a55 55 0 0 1-.645 6.182l-21.242 130.759c-4.758 29.284-32.396 49.197-61.68 44.44-29.285-4.757-49.198-32.395-44.441-61.68l21.243-130.759a53.7 53.7 0 0 1 4.188-13.793c-29.016-8.919-58.035-19.451-87.034-31.614l-60.226 115.095c-13.756 26.287-46.265 36.461-72.552 22.706s-36.462-46.265-22.706-72.552l58.611-112.009c-32.695-17.863-65.389-37.848-98.077-59.994l-65.774 83.91c-17.113 21.831-49.123 25.354-71.439 7.861s-26.539-49.417-9.427-71.248z" style="fill:url(#a)"/><defs><linearGradient id="a" x1="0" x2="1" y1="0" y2="0" gradientTransform="rotate(-.077 529637.575 -156223.186)scale(1148.68105)" gradientUnits="userSpaceOnUse"><stop offset="0" style="stop-color:#3345f6;stop-opacity:1"/><stop offset="1" style="stop-color:#5c42f7;stop-opacity:1"/></linearGradient></defs></svg>